<svg xmlns="http://www.w3.org/2000/svg" version="1.1" width="24" height="24" viewBox="0 0 1024 1024">
                                <!-- 
                                    Atribut 'width' dan 'height' telah diubah menjadi '24' untuk memperkecil ukuran tampilan SVG.
                                    Atribut 'viewBox' dipertahankan agar seluruh detail gambar asli diskalakan dengan benar ke dalam ukuran baru.
                                -->
                                <path d="M0 0 C337.92 0 675.84 0 1024 0 C1024 337.92 1024 675.84 1024 1024 C686.08 1024 348.16 1024 0 1024 C0 686.08 0 348.16 0 0 Z " fill="#000000" transform="translate(0,0)"/>
                                <path d="M0 0 C74.91 0 149.82 0 227 0 C227 337.92 227 675.84 227 1024 C110.51 1024 -5.98 1024 -126 1024 C-119.26171749 1016.1386704 -119.26171749 1016.1386704 -115.72265625 1012.66015625 C-114.96146484 1011.90669922 -114.20027344 1011.15324219 -113.41601562 1010.37695312 C-111.85094387 1008.83785767 -110.28583987 1007.298795 -108.72070312 1005.75976562 C-103.92322163 1001.01094835 -99.37143975 996.14283021 -95 991 C-94.53924072 990.46608643 -94.07848145 989.93217285 -93.60375977 989.38208008 C-77.97833505 971.26966455 -63.83970885 952.04557816 -50.18481445 932.41821289 C-45.7768542 926.08682397 -41.28411245 919.82200253 -36.75366211 913.57788086 C-33.13013549 908.57879189 -29.55107239 903.5507773 -26 898.5 C-19.20797852 888.84470823 -12.28179674 879.28793912 -5.35449219 869.72949219 C1.4991965 860.26952853 8.30908503 850.78212968 15.0234375 841.22265625 C17.03269408 838.3639417 19.06002903 835.51934134 21.1015625 832.68359375 C27.54754941 823.70717844 33.60628372 814.64904934 39 805 C39.45342773 804.1941748 39.90685547 803.38834961 40.37402344 802.55810547 C61.40793112 764.79683166 73.54602145 722.71272992 78.65161133 679.88037109 C78.91555216 677.69818892 79.20666162 675.51927097 79.51049805 673.34228516 C81.34915007 659.50260603 81.35580745 645.69210561 81.3125 631.75 C81.31034485 630.50578278 81.3081897 629.26156555 81.30596924 627.97964478 C81.25446678 609.46064085 80.8028824 591.33331884 78 573 C77.79907485 571.64066068 77.59840242 570.28128399 77.39794922 568.921875 C72.92839172 539.00366528 65.44112665 510.03809349 57.42184448 480.90606689 C53.70348648 467.39263849 50.085699 453.85815307 46.6534729 440.26895142 C46.18570169 438.41906095 45.71509992 436.5698833 45.24130249 434.7215271 C42.13011187 422.56113206 39.68548538 410.44085866 38 398 C37.90292755 397.28875977 37.8058551 396.57751953 37.70584106 395.84472656 C36.42738914 386.1134763 37.19626701 376.84771838 38.25 367.125 C38.52520577 364.47542689 38.79893035 361.82574472 39.0703125 359.17578125 C39.14341644 358.46481796 39.21652039 357.75385468 39.2918396 357.02134705 C40.20528792 348.08270723 41.03896406 339.13666801 41.86022949 330.18914795 C42.03393957 328.3018428 42.20910201 326.41467066 42.38586426 324.52764893 C42.96364128 318.35481161 43.50700946 312.18021262 44 306 C44.05794739 305.27983704 44.11589478 304.55967407 44.17559814 303.81768799 C45.40847147 287.65487499 45.15278598 271.41240431 45.13037109 255.21386719 C45.1246931 251.09164643 45.12805658 246.96949044 45.13379765 242.84727192 C45.16234216 218.91769256 44.81716413 195.13348759 42.3125 171.3125 C42.2279657 170.49526459 42.1434314 169.67802917 42.05633545 168.83602905 C40.16420284 150.75258538 37.36235033 132.8647355 34 115 C33.65630371 113.16767822 33.65630371 113.16767822 33.30566406 111.29833984 C26.52567029 75.97644193 16.12630899 41.02584546 2.33544922 7.80859375 C0 2.18112257 0 2.18112257 0 0 Z " fill="#FEFEFE" transform="translate(797,0)"/>
                                <path d="M0 0 C74.58 0 149.16 0 226 0 C222.37 9.9 218.74 19.8 215 30 C204.09301522 61.81203893 195.38132515 94.77313394 190 128 C189.8242041 129.0739502 189.6484082 130.14790039 189.46728516 131.25439453 C186.50086686 149.74034296 184.61388482 168.2981076 183.16143799 186.95404053 C183.00652882 188.91725805 182.84305191 190.87979383 182.67919922 192.84228516 C178.22896786 247.31001388 180.03801352 302.85254728 187.1328125 357.015625 C192.38519873 397.5763395 183.08844828 434.9338784 171.75311279 473.65536499 C162.93879544 503.77863289 154.71875877 533.92986052 150 565 C149.77473633 566.4236084 149.77473633 566.4236084 149.54492188 567.87597656 C144.43761446 600.56961485 143.23406375 634.5160987 146.7265625 667.40576172 C146.9813003 669.82258664 147.21293573 672.24037225 147.4375 674.66015625 C153.11309519 733.50234287 174.3184801 789.28855514 209 837 C211.0850292 839.8737738 213.16811596 842.74894697 215.25 845.625 C216.0685144 846.754823 216.0685144 846.754823 216.90356445 847.9074707 C220.97532797 853.54279141 224.9671932 859.23039185 228.9375 864.9375 C234.13576872 872.40540481 239.4678333 879.75985858 244.89038086 887.06616211 C248.66587255 892.16204434 252.36216303 897.30508153 256 902.5 C260.24788133 908.56525922 264.59106128 914.55082068 269 920.5 C273.40895891 926.44920656 277.75120329 932.43536288 282 938.5 C291.05279478 951.39057372 300.1638609 964.20014958 310.5 976.1015625 C312.83796291 978.81213825 315.08063862 981.57696791 317.3125 984.375 C326.85401094 996.05745067 337.57503914 1006.69985058 348.31030273 1017.27368164 C349.42127319 1018.37184204 349.42127319 1018.37184204 350.5546875 1019.4921875 C351.21968262 1020.14558105 351.88467773 1020.79897461 352.56982422 1021.47216797 C354 1023 354 1023 354 1024 C237.18 1024 120.36 1024 0 1024 C0 686.08 0 348.16 0 0 Z " fill="#FEFEFE" transform="translate(0,0)"/>
                                <path d="M0 0 C106.26 0 212.52 0 322 0 C320.38860507 3.22278987 318.74207811 5.97628955 316.7265625 8.9375 C315.74574707 10.38793701 315.74574707 10.38793701 314.74511719 11.86767578 C314.04547852 12.90134277 313.34583984 13.93500977 312.625 15 C305.3807624 25.79828974 298.46956654 36.72074888 292 48 C291.27417725 49.26215332 291.27417725 49.26215332 290.53369141 50.54980469 C271.97551284 83.07091971 259.18579725 117.07907248 249 153 C243.19345498 152.42054026 237.48911129 151.60672533 231.74365234 150.59106445 C215.64760479 147.74911836 199.67549333 146.14276374 183.3515625 145.44921875 C182.34907471 145.40518921 181.34658691 145.36115967 180.3137207 145.3157959 C177.87587802 145.20894948 175.43797792 145.10370662 173 145 C173.00227832 146.20642876 173.00227832 146.20642876 173.00460267 147.43722981 C173.09406189 195.0768399 173.16271936 242.7164411 173.20426132 290.35611833 C173.20926431 296.07278021 173.21444158 301.7894419 173.21972656 307.50610352 C173.2207758 308.64421619 173.22182505 309.78232887 173.22290608 310.95492981 C173.24032429 329.39734512 173.27186976 347.83971069 173.30861118 366.28209647 C173.34598123 385.19739508 173.36822751 404.11266759 173.37635398 423.02800161 C173.38184992 434.70532256 173.39922535 446.38250294 173.43166587 458.05978063 C173.45276518 466.06093066 173.45921046 474.06200773 173.45400551 482.06318357 C173.45143658 486.68353245 173.45544983 491.30363523 173.4768219 495.92394066 C173.49623416 500.15131627 173.4973049 504.37827943 173.48359558 508.60567371 C173.48190029 510.13738934 173.48701971 511.66913033 173.49953273 513.20079579 C173.51552928 515.27921916 173.50697099 517.35614346 173.49219131 519.43454266 C173.49446964 521.1677761 173.49446964 521.1677761 173.49679399 522.93602437 C172.79728908 527.25021909 170.7031614 529.72262895 167.25 532.3125 C163.80019007 533.36660859 160.53784435 533.56469439 157 533 C153.24787724 530.98497111 151.36355905 529.54533858 149 526 C148.75160301 523.18442136 148.75160301 523.18442136 148.75390434 519.68063831 C148.75159665 519.03390641 148.74928897 518.3871745 148.74691135 517.72084466 C148.74158856 515.53879548 148.75061411 513.35703738 148.75949097 511.17500305 C148.75861936 509.60086424 148.75686922 508.02672571 148.75431263 506.45258874 C148.74982618 502.11533027 148.75786054 497.77816999 148.76786876 493.44092405 C148.77648233 488.76813146 148.77358458 484.09534468 148.77206421 479.42254639 C148.77101403 471.32273859 148.77730451 463.22296294 148.78853989 455.12316322 C148.80477393 443.41212613 148.81000074 431.70110462 148.81251587 419.99005749 C148.81689627 400.99100282 148.83021472 381.99196528 148.84912109 362.99291992 C148.86747097 344.53393642 148.88163184 326.07495757 148.89013672 307.6159668 C148.89066217 306.47870965 148.89118761 305.34145251 148.89172898 304.16973303 C148.894339 298.46461381 148.89686643 292.75949456 148.89935279 287.05437529 C148.92009603 239.70290501 148.95533094 192.35145334 149 145 C144.68965037 145.25448336 140.37958062 145.51321361 136.06970215 145.77552795 C134.60997055 145.8638143 133.15017374 145.95103031 131.69030762 146.0370636 C113.98017484 147.0824428 96.3722992 148.78326351 79.01171875 152.546875 C76.05907366 152.99111213 74.68999468 153.19017873 72 152 C70.93847656 149.77294922 70.93847656 149.77294922 70.140625 146.8046875 C69.83406982 145.70817871 69.52751465 144.61166992 69.21166992 143.48193359 C68.89431885 142.29164551 68.57696777 141.10135742 68.25 139.875 C67.54697243 137.38428312 66.83987247 134.89471246 66.12890625 132.40625 C65.59547607 130.52873047 65.59547607 130.52873047 65.05126953 128.61328125 C52.40403341 85.14391418 30.43922908 39.30488587 1.640625 4.1171875 C0 2 0 2 0 0 Z " fill="#FEFEFE" transform="translate(351,0)"/>
                                <path d="M0 0 C2.23504301 2.8280136 3.92905553 5.6666225 5.5625 8.875 C11.72441397 20.27302313 19.59755046 30.25176978 28.58789062 39.53662109 C29.99615116 40.99601142 31.38099543 42.47524325 32.765625 43.95703125 C47.92382028 59.91647161 66.74417966 72.08085342 85.9765625 82.55859375 C87.39652275 83.33251465 87.39652275 83.33251465 88.84516907 84.12207031 C101.18818362 90.79177092 113.80423614 96.92449582 126.4128418 103.07275391 C167.76904259 123.27237614 202.20771166 148.04680115 217.84765625 193.1484375 C221.34390888 203.89514115 223.5516327 214.80372216 225 226 C225.14139404 227.0202124 225.14139404 227.0202124 225.28564453 228.06103516 C228.91251688 256.5764269 224.02559029 285.19646025 218 313 C215.84902043 310.18367505 213.94046971 307.30684759 212.09570312 304.27978516 C207.19634204 296.32159837 201.59846567 289.59846567 195 283 C194.28328125 282.28328125 193.5665625 281.5665625 192.828125 280.828125 C171.02831115 260.33957815 142.53266965 251.06178205 114.4375 243 C86.5568756 234.99201272 86.5568756 234.99201272 74 229 C73.2059375 228.62166016 72.411875 228.24332031 71.59375 227.85351562 C55.45060318 220.02156705 41.88169426 210.42477195 29 198 C28.08605469 197.16082031 27.17210937 196.32164062 26.23046875 195.45703125 C-1.44775741 169.28348692 -14.1108048 131.17333318 -15.2890625 93.80078125 C-15.86075034 61.55049297 -10.47089014 30.48440001 0 0 Z " fill="#FDFDFD" transform="translate(214,429)"/>
                                <path d="M0 0 C21.08359196 31.62538793 19.47647918 91.57617196 12.3125 127.5625 C7.08486618 151.75125465 -4.07707568 173.59368931 -20.921875 191.7109375 C-22.35393782 193.28836008 -23.72817486 194.91958083 -25.05078125 196.58984375 C-27.98512913 200.21808551 -31.40863771 203.0379922 -35 206 C-35.90492188 206.75410156 -36.80984375 207.50820313 -37.7421875 208.28515625 C-58.67058161 225.08644974 -82.42926736 234.71291823 -108 242 C-137.26515993 250.39316653 -165.33947545 258.96389315 -189 279 C-189.94488281 279.79921875 -190.88976562 280.5984375 -191.86328125 281.421875 C-201.76438947 290.02746666 -209.50859398 299.80709806 -215.94140625 311.26953125 C-216.29074219 311.84058594 -216.64007812 312.41164063 -217 313 C-217.33 313 -217.66 313 -218 313 C-223.45693366 282.69063136 -228.28204607 251.69471612 -223 221 C-222.87109375 220.22446777 -222.7421875 219.44893555 -222.609375 218.64990234 C-217.64661424 189.4534753 -205.98310122 164.17019335 -185 143 C-184.09765625 142.08476563 -183.1953125 141.16953125 -182.265625 140.2265625 C-161.6496501 120.35094029 -134.24670171 108.402755405 -108.83886719 95.93994141 C-85.47759178 84.47571727 -62.69055516 72.22523362 -43 55 C-42.17628906 54.28585937 -41.35257813 53.57171875 -40.50390625 52.8359375 C-37.9654498 50.59449234 -35.47563002 48.31058802 -33 46 C-32.13761719 45.20335937 -31.27523437 44.40671875 -30.38671875 43.5859375 C-19.41836944 33.07790965 -2.17039617 15.64969867 0 0 Z " fill="#FDFDFD" transform="translate(809,428)"/>
                                <path d="M0 0 C1.17175781 0.04640625 2.34351563 0.0928125 3.55078125 0.140625 C5.32001953 0.19476562 5.32001953 0.19476562 7.125 0.25 C8.02863281 0.29640625 8.93226563 0.3428125 9.86328125 0.390625 C14.02685187 8.24693361 17.37156065 16.34486434 20.55078125 24.640625 C20.80995331 25.3159024 21.06912537 25.99117981 21.33615112 26.68692017 C44.50030373 87.22639987 58.8661187 151.85494153 59.03194618 216.90041161 C59.03933933 219.20747851 59.05516343 221.51435876 59.07328796 223.82136536 C59.12469163 230.36940762 59.17346605 236.91733697 59.18920898 243.46557617 C59.24698062 264.46470219 60.28075101 284.65570898 63.86328125 305.390625 C60.48899592 303.70348233 59.76320348 299.80145678 58.36328125 296.453125 C42.72562448 260.22927788 17.6257337 228.6509656 -14.13671875 205.390625 C-15.05582031 204.71 -15.97492188 204.029375 -16.921875 203.328125 C-24.02502896 198.20531614 -31.53838065 193.73101892 -39.13671875 189.390625 C-40.19028564 188.78879395 -40.19028564 188.78879395 -41.26513672 188.17480469 C-57.39744591 179.0771217 -74.52521239 172.08415772 -92.13671875 166.390625 C-77.31387867 107.45489178 -46.29986594 52.21027702 -7.35131836 5.91357422 C-6.00945841 4.30160143 -6.00945841 4.30160143 -4.69140625 1.96484375 C-3.13671875 0.390625 -3.13671875 0.390625 0 0 Z " fill="#FEFEFE" transform="translate(737.13671875,-0.390625)"/>
                                <path d="M0 0 C4.59025727 -0.93285874 8.4210336 -1.07711455 13 0 C17.23646343 3.40983642 20.26480523 7.41480446 23.42578125 11.81396484 C25.04482075 14.06224024 26.71793053 16.26040566 28.40625 18.45703125 C36.87169567 29.57689632 44.56962096 41.16985201 52 53 C52.59989746 53.94891113 52.59989746 53.94891113 53.21191406 54.91699219 C74.15340368 88.2204184 92.83657607 126.24411094 101 165 C100.26587891 165.29132813 99.53175781 165.58265625 98.77539062 165.8828125 C84.90491543 171.40668365 71.20243571 176.99671461 58 184 C56.23849609 184.87978516 56.23849609 184.87978516 54.44140625 185.77734375 C28.71153045 198.7518519 3.68936727 217.09334989 -14 240 C-14.87924544 241.09297177 -15.76086432 242.18403739 -16.64453125 243.2734375 C-30.39032022 260.31047171 -41.88024424 278.63405524 -50 299 C-50.57427734 300.43279297 -50.57427734 300.43279297 -51.16015625 301.89453125 C-51.43730469 302.58933594 -51.71445313 303.28414063 -52 304 C-53.28908131 300.30109201 -52.73794138 297.3991736 -52.08398438 293.58374023 C-51.00517433 286.56439538 -50.68856447 279.7523355 -50.65625 272.66015625 C-50.62778301 270.12622052 -50.5992993 267.59228498 -50.57080078 265.05834961 C-50.55954163 263.75235809 -50.54828247 262.44636658 -50.53668213 261.10079956 C-50.47757553 254.25694346 -50.37647983 247.41362659 -50.2734375 240.5703125 C-50.26338558 239.89306311 -50.25333366 239.21581371 -50.24297714 238.51804161 C-49.03117281 158.47669463 -37.33885433 72.08791981 0 0 Z " fill="#FEFEFE" transform="translate(277,0)"/>
                                <path d="M0 0 C3.35055283 3.26678901 4.79978574 5.30430149 4.875 9.9375 C4.58758706 20.92306143 -0.42834586 28.42831595 -7.5 36.4375 C-8.056875 37.12585938 -8.61375 37.81421875 -9.1875 38.5234375 C-13.2337153 43.44503592 -17.84318696 47.33681701 -22.8515625 51.26171875 C-28.26350452 55.61276677 -28.26350452 55.61276677 -31.625 61.5 C-31.29412653 71.92251432 -25.16000517 79.91618269 -18.5 87.4375 C-17.84386719 88.23671875 -17.18773437 89.0359375 -16.51171875 89.859375 C-2.51229776 106.41612902 17.83666454 119.82933655 39.5625 123.25 C40.861875 123.311875 42.16125 123.37375 43.5 123.4375 C44.510625 123.48777344 45.52125 123.53804687 46.5625 123.58984375 C65.55957212 124.11989599 82.96802298 118.95057992 97.08886719 105.97781372 C101.70401226 101.5296961 106.13677086 96.89908059 110.58789062 92.28808594 C120.4178168 82.13798502 130.6108725 72.08922365 143.5625 66 C144.23168457 65.67708984 144.90086914 65.35417969 145.59033203 65.02148438 C154.36129414 60.92795016 163.74157564 58.15067481 173.5 59.4375 C176.5625 60.5625 176.5625 60.5625 178.5 62.4375 C180.11533126 67.71268807 178.7672937 71.27367457 176.5 76.0625 C176.17749268 76.76544189 175.85498535 77.46838379 175.52270508 78.19262695 C167.79285924 94.73777033 157.03082875 108.33567976 144.5 121.4375 C143.61441406 122.3759375 142.72882813 123.314375 141.81640625 124.28125 C124.87877175 141.78429175 103.20251336 157.12672079 78.05151367 157.78149414 C47.8415935 158.10854724 25.76919044 141.32655306 3.3125 122.6875 C-7.13690344 114.04624545 -18.28536203 106.11079971 -31.5 102.4375 C-32.14582031 102.24929688 -32.79164063 102.06109375 -33.45703125 101.8671875 C-47.49705367 98.91421911 -60.19138016 104.49331629 -71.7578125 111.8984375 C-77.2833982 115.57362098 -82.43528724 119.69689473 -87.58105469 123.87939453 C-102.59168834 136.06741793 -117.44970243 147.13309943 -135.5 154.4375 C-136.31855469 154.7778125 -137.13710938 155.118125 -137.98046875 155.46875 C-150.67163502 159.82692474 -168.02736049 159.07970431 -180.5 154.4375 C-181.6240625 154.02371094 -182.748125 153.60992188 -183.90625 153.18359375 C-217.74243383 139.68589868 -246.24973859 106.34329764 -260.5 73.4375 C-261.68071224 70.21021986 -262.21177406 67.89621133 -262.5 64.4375 C-261.3125 61.9375 -261.3125 61.9375 -259.5 60.4375 C-248.28909488 56.70053163 -235.67077146 61.07318685 -225.5 66 C-224.89655762 66.28552734 -224.29311523 66.57105469 -223.67138672 66.86523438 C-209.83451205 73.94541085 -199.19616444 85.43818523 -188.57861328 96.49584961 C-172.96772284 112.69963938 -155.69774536 123.21569 -132.5 123.8125 C-120.72783232 123.50963663 -110.07884174 120.48813717 -99.5 115.4375 C-98.60925781 115.01855469 -97.71851563 114.59960938 -96.80078125 114.16796875 C-78.1404279 104.71520581 -60.1270445 88.16339784 -52.5 68.4375 C-51.28904967 64.71427958 -51.16783425 62.15624841 -52.5 58.4375 C-57.24427073 52.41516618 -63.64094496 47.7075035 -69.609375 42.96875 C-79.12876611 34.63285076 -87.19854347 23.68659486 -88.1875 10.8125 C-87.96568459 5.58505025 -86.31228807 2.70796047 -82.6015625 -0.9140625 C-79.09937471 -3.66113173 -75.73745899 -5.23347877 -71.5 -6.5625 C-70.16195312 -7.00916016 -70.16195312 -7.00916016 -68.796875 -7.46484375 C-49.25624406 -12.79187505 -16.75714582 -13.34959225 0 0 Z " fill="#FDFDFD" transform="translate(553.5,825.5625)"/>
                                <path d="M0 0 C1.04587319 35.08502278 -4.41432542 66.53956624 -28.97265625 93.2890625 C-38.55700341 103.39683745 -49.19486827 111.15522767 -61.4375 117.75 C-62.38351074 118.26095215 -62.38351074 118.26095215 -63.34863281 118.78222656 C-78.51932183 126.63591161 -94.81911629 131.06138898 -111.15917969 135.74462891 C-130.53744286 141.31752418 -149.30797142 147.61941896 -167.17822266 157.04882812 C-170.4287074 158.74594533 -173.71674235 160.36740104 -177 162 C-178.36706691 134.12702474 -168.48581082 110.95307502 -150.27734375 90.01953125 C-132.63760449 71.21673225 -108.16374841 60.69518134 -85.02368164 50.42651367 C-75.5407719 46.21360218 -66.24573081 41.71023473 -57 37 C-56.16017578 36.57686523 -55.32035156 36.15373047 -54.45507812 35.71777344 C-36.82663286 26.80367293 -20.39152234 16.3612073 -5.31884766 3.57373047 C-1.09489155 0 -1.09489155 0 0 0 Z " fill="#000000" transform="translate(793,507)"/>
                                <path d="M0 0 C3.0833791 1.47616625 5.21818039 3.00084686 7.6875 5.375 C28.50601717 24.15581565 55.35680221 37.77598865 80.90600586 48.87402344 C117.55984613 64.83598523 154.69778342 82.85887946 170.79785156 121.93652344 C175.91933307 135.27666698 177.34776182 147.85768614 177 162 C175.58074219 161.27296875 175.58074219 161.27296875 174.1328125 160.53125 C169.77504765 158.31350389 165.39103212 156.15097751 161 154 C159.99767334 153.5035498 159.99767334 153.5035498 158.97509766 152.99707031 C140.63946918 144.01467254 120.73428403 138.48843667 101.16503906 132.85961914 C78.41538646 126.30047209 56.89517957 117.91611765 39 102 C38.17242187 101.31550781 37.34484375 100.63101563 36.4921875 99.92578125 C14.497565 81.27516875 3.56363168 54.4812315 0.18310547 26.31811523 C-0.20634099 21.38772302 -0.10092536 16.44209219 -0.0625 11.5 C-0.05798828 10.39140625 -0.05347656 9.2828125 -0.04882812 8.140625 C-0.03713158 5.42702601 -0.02074086 2.71354239 0 0 Z " fill="#000000" transform="translate(231,507)"/>
                                <path d="M0 0 C0.33 0 0.66 0 1 0 C1.37627929 14.3044018 1.06573505 27.98875386 -2 42 C-2.22550537 43.05380859 -2.22550537 43.05380859 -2.45556641 44.12890625 C-6.32611635 61.33135043 -14.83903068 78.19781593 -27 91 C-27.64710938 91.73605469 -28.29421875 92.47210937 -28.9609375 93.23046875 C-52.11442994 118.29124122 -87.5947911 130.19281261 -120.05859375 136.76953125 C-154.01911116 143.67393879 -193.20944856 152.64587277 -216 181 C-217 179 -217 179 -216.1015625 176.0859375 C-210.3755329 161.69512236 -203.54100019 148.49927293 -193 137 C-192.16855469 136.08734375 -191.33710937 135.1746875 -190.48046875 134.234375 C-180.44019665 123.70899459 -169.24820278 116.43462249 -156.4375 109.6875 C-155.03806152 108.94995483 -155.03806152 108.94995483 -153.61035156 108.19750977 C-143.36575172 102.94755406 -132.67560891 99.17377057 -121.76464844 95.56445312 C-90.13920127 85.04853867 -59.34537478 70.47665109 -35.22265625 46.984375 C-33 45 -33 45 -31 45 C-31 44.34 -31 43.68 -31 43 C-29.90644507 41.8711691 -28.80446318 40.74995869 -27.67578125 39.65625 C-15.85066276 27.96895341 -7.46492738 14.70611035 0 0 Z " fill="#FDFDFD" transform="translate(846,617)"/>
                                <path d="M0 0 C2.1933709 2.8634734 3.9250656 5.65878557 5.5625 8.875 C12.0757908 20.92298373 20.51950432 31.19164856 30 41 C30.81210938 41.86367188 31.62421875 42.72734375 32.4609375 43.6171875 C38.77018109 50.17145026 45.64832099 55.69080463 53 61 C54.06089844 61.77859375 55.12179688 62.5571875 56.21484375 63.359375 C76.83726176 78.03365664 100.5337339 88.19580407 124.4375 96.16015625 C149.29397356 104.44748335 170.93054213 114.76545709 190 133 C190.68449219 133.62132812 191.36898437 134.24265625 192.07421875 134.8828125 C204.41206503 146.46923789 214.18660716 163.47529769 218 180 C217.030625 179.175 216.06125 178.35 215.0625 177.5 C214.41539062 176.95085937 213.76828125 176.40171875 213.1015625 175.8359375 C211.71345041 174.62327452 210.35278757 173.37836909 209.0234375 172.1015625 C202.68965016 166.09988386 195.67181644 162.00420382 188 158 C186.35644531 157.12021484 186.35644531 157.12021484 184.6796875 156.22265625 C165.13021052 146.40338592 143.18037079 141.90116438 122 137 C87.7327501 129.05111366 57.99174707 118.44724597 32 94 C31.31292969 93.38898438 30.62585938 92.77796875 29.91796875 92.1484375 C11.12222806 74.72437808 0.84817054 45.18127008 -0.11572266 19.97363281 C-0.24011303 13.31318542 -0.17364174 6.65893792 0 0 Z " fill="#FDFDFD" transform="translate(177,617)"/>
                                <path d="M0 0 C0.33 0 0.66 0 1 0 C4.24136084 18.63782482 5.11609566 39.4539138 1 58 C0.75507812 59.175625 0.51015625 60.35125 0.2578125 61.5625 C-4.58353202 82.12750327 -15.53735105 98.8702547 -30 114 C-30.57492187 114.63808594 -31.14984375 115.27617187 -31.7421875 115.93359375 C-41.17353268 126.01465382 -53.00157551 133.91636453 -64.6875 141.125 C-77.64570195 149.12090362 -88.99327525 158.51521199 -100 169 C-100.85207031 169.78761719 -101.70414063 170.57523438 -102.58203125 171.38671875 C-114.20710586 182.46257724 -122.67830519 195.80913425 -130 210 C-130.31952637 210.61842773 -130.63905273 211.23685547 -130.96826172 211.87402344 C-137.29415919 224.31418355 -141.74469877 237.44388643 -145 251 C-145.33 251 -145.66 251 -146 251 C-150.786096 219.249381 -146.98929745 187.1042066 -128.1875 160.25 C-123.52293941 154.15301529 -118.32835404 148.51951782 -113 143 C-112.19647095 142.15816162 -112.19647095 142.15816162 -111.37670898 141.29931641 C-107.2595191 137.06871332 -102.90894414 133.41050748 -98.1875 129.875 C-97.45756836 129.32223389 -96.72763672 128.76946777 -95.97558594 128.19995117 C-89.87318716 123.60105137 -83.6782253 119.13322843 -77.47167969 114.67651367 C-68.18824067 108.00010951 -59.0574155 101.23757374 -50.70703125 93.3984375 C-49 92 -49 92 -47 92 C-46.505 90.515 -46.505 90.515 -46 89 C-44.5625 87.3125 -44.5625 87.3125 -43 86 C-42.34 86 -41.68 86 -41 86 C-40.74089844 85.41605469 -40.48179687 84.83210938 -40.21484375 84.23046875 C-38.9098442 81.8344728 -37.46508932 80.26255517 -35.5625 78.3125 C-15.88308464 56.42671257 -6.58890412 28.09973817 0 0 Z " fill="#FCFCFC" transform="translate(729,319)"/>
                                <path d="M0 0 C0.33 0 0.66 0 1 0 C1.20753906 1.21171875 1.41507812 2.4234375 1.62890625 3.671875 C10.77495106 54.47185511 39.49554157 88.24413705 80.6875 117.125 C92.46954768 125.39432119 103.55617189 134.08145319 114 144 C114.96679688 144.87011719 114.96679688 144.87011719 115.953125 145.7578125 C134.19634398 162.72230117 146.03727416 190.01807792 147.17089844 214.72460938 C147.24122653 218.15270946 147.23642976 221.57876772 147.20581055 225.00732422 C147.18746798 227.12870281 147.1853023 229.2496437 147.18554688 231.37109375 C147.16697944 238.31409555 146.95799029 245.11779774 146 252 C144.40000722 248.95182036 143.39398827 246.00245257 142.50488281 242.67163086 C135.3210614 215.96722758 122.01984041 192.03502812 103 172 C102.30463135 171.25580811 102.30463135 171.25580811 101.59521484 170.49658203 C91.28400785 159.51621116 79.88746097 150.88465385 67.36328125 142.5625 C66.48144165 141.9765229 66.48144165 141.9765229 65.58178711 141.37870789 C62.64800132 139.43313288 59.70773404 137.49856975 56.75537109 135.58129883 C27.20796715 116.22094059 5.84014249 90.22506257 -1.57910156 55.25830078 C-2.94577775 47.92549639 -3.1932278 40.63237349 -3.1875 33.1875 C-3.18741943 32.19862793 -3.18733887 31.20975586 -3.18725586 30.19091797 C-2.98115416 2.98115416 -2.98115416 2.98115416 0 0 Z " fill="#FCFCFC" transform="translate(295,319)"/>
                                <path d="M0 0 C5.29186889 2.74857846 8.16944028 6.63722709 10.0625 12.31640625 C10.62135205 18.12846757 9.64304707 21.8212023 6.0625 26.31640625 C2.12534224 29.79575496 -1.47635319 31.11553245 -6.62890625 31.48046875 C-11.95120189 31.10223454 -15.73057937 28.55427356 -19.375 24.81640625 C-22.15382067 20.37029317 -22.38120542 16.5521302 -21.9375 11.31640625 C-20.06928119 6.46309868 -17.28211873 3.21281873 -12.9375 0.31640625 C-8.58499493 -1.13442877 -4.35636245 -1.53702304 0 0 Z " fill="#FBFBFB" transform="translate(754.9375,781.68359375)"/>
                                <path d="M0 0 C4.616214 2.32306234 7.29821212 5.54858993 8.93359375 10.34765625 C9.83523946 15.64482479 8.91466403 19.87605083 5.93359375 24.34765625 C2.05533048 28.26830491 -1.19759794 30.15760795 -6.75390625 30.72265625 C-11.81433165 30.62946241 -15.3579547 28.72046428 -19.06640625 25.34765625 C-22.14477475 21.46806855 -23.40229838 17.73690337 -23.19140625 12.78515625 C-22.36374879 7.85334168 -19.83977407 4.53778689 -16.06640625 1.34765625 C-11.20831648 -1.64116853 -5.38548933 -1.70014502 0 0 Z " fill="#FBFCFC" transform="translate(328.06640625,809.65234375)"/>
                                <path d="M0 0 C4.35025116 2.24075437 6.93287482 4.89841835 8.9375 9.30859375 C9.70026171 14.58501756 9.59382222 18.86468486 7.375 23.74609375 C3.22057089 28.11357051 -0.49739907 30.48816921 -6.5 30.87109375 C-11.60101065 30.61822314 -15.27592228 28.66851483 -19.0625 25.30859375 C-21.99532546 21.27595874 -22.65389723 17.51012514 -22.48046875 12.62109375 C-21.55424159 7.49654721 -18.64717896 3.75744309 -14.875 0.30859375 C-9.99683937 -1.42586336 -4.94980449 -1.65930946 0 0 Z " fill="#FCFCFC" transform="translate(709.0625,809.69140625)"/>
                                <path d="M0 0 C4.7344316 1.91391916 7.72684393 5.45368786 10 10 C10.70353497 14.74886105 11.02995411 19.14548726 8.6484375 23.43359375 C5.31957644 27.42969348 2.29710687 30.25840504 -3 31 C-8.19427631 31.21920799 -11.86754784 30.53673146 -15.9375 27.1875 C-18.98716615 24.38296068 -20.746967 21.783 -21.3359375 17.6328125 C-21.42531743 11.89462069 -21.01244424 8.43480679 -17 4 C-11.85338581 -0.77003266 -6.68088166 -0.83766406 0 0 Z " fill="#FCFCFC" transform="translate(281,782)"/>
                                <path d="M0 0 C0.33 0 0.66 0 1 0 C1.33 3.63 1.66 7.26 2 11 C0.68 11 -0.64 11 -2 11 C-1.85957123 9.35369672 -1.71250671 7.70795821 -1.5625 6.0625 C-1.48128906 5.14597656 -1.40007812 4.22945313 -1.31640625 3.28515625 C-1 1 -1 1 0 0 Z " fill="#D6D6D6" transform="translate(295,319)"/>
                            </svg>